<svg width="21" height="20" viewBox="0 0 21 20" fill="none" xmlns="http://www.w3.org/2000/svg">
<path fill-rule="evenodd" clip-rule="evenodd" d="M1.33398 2.36504C1.33398 1.95882 1.49536 1.56923 1.7826 1.28199C2.06984 0.994748 2.45943 0.833376 2.86565 0.833376H18.134C18.3353 0.833047 18.5347 0.872428 18.7208 0.949265C18.9068 1.0261 19.0759 1.13888 19.2184 1.28116C19.3608 1.42343 19.4738 1.5924 19.5508 1.77838C19.6278 1.96437 19.6674 2.16373 19.6673 2.36504V17.6334C19.6675 17.8347 19.6281 18.0341 19.5511 18.2202C19.4742 18.4063 19.3613 18.5754 19.219 18.7178C19.0767 18.8602 18.9076 18.9732 18.7216 19.0502C18.5356 19.1272 18.3362 19.1668 18.1348 19.1667H2.86565C2.66444 19.1667 2.4652 19.1271 2.27932 19.05C2.09343 18.973 1.92454 18.8601 1.7823 18.7178C1.64007 18.5755 1.52726 18.4065 1.45034 18.2206C1.37341 18.0347 1.33388 17.8354 1.33398 17.6342V2.36504ZM8.59065 7.82338H11.0732V9.07004C11.4315 8.35338 12.3482 7.70838 13.7257 7.70838C16.3665 7.70838 16.9923 9.13588 16.9923 11.755V16.6067H14.3198V12.3517C14.3198 10.86 13.9615 10.0184 13.0515 10.0184C11.789 10.0184 11.264 10.9259 11.264 12.3517V16.6067H8.59065V7.82338ZM4.00732 16.4925H6.68065V7.70838H4.00732V16.4917V16.4925ZM7.06315 4.84338C7.06819 5.07227 7.02746 5.29987 6.94335 5.5128C6.85924 5.72574 6.73344 5.91974 6.57334 6.0834C6.41324 6.24707 6.22207 6.3771 6.01103 6.46588C5.79999 6.55466 5.57335 6.60039 5.3444 6.60039C5.11545 6.60039 4.88881 6.55466 4.67777 6.46588C4.46674 6.3771 4.27556 6.24707 4.11546 6.0834C3.95536 5.91974 3.82956 5.72574 3.74545 5.5128C3.66134 5.29987 3.62061 5.07227 3.62565 4.84338C3.63554 4.39409 3.82097 3.96654 4.14222 3.65228C4.46347 3.33803 4.895 3.16206 5.3444 3.16206C5.7938 3.16206 6.22533 3.33803 6.54658 3.65228C6.86783 3.96654 7.05326 4.39409 7.06315 4.84338Z" fill="#C5C8D2"/>
</svg>
