<svg width="21" height="20" viewBox="0 0 21 20" fill="none" xmlns="http://www.w3.org/2000/svg">
<g clip-path="url(#clip0)">
<path d="M20.2029 4.11415C19.5071 4.42248 18.7596 4.63082 17.9737 4.72498C18.7846 4.23981 19.3912 3.4762 19.6804 2.57665C18.9186 3.02914 18.0849 3.34765 17.2154 3.51832C16.6307 2.89404 15.8563 2.48025 15.0124 2.34121C14.1684 2.20217 13.3022 2.34564 12.5481 2.74936C11.7941 3.15308 11.1944 3.79445 10.8422 4.5739C10.49 5.35335 10.405 6.22727 10.6004 7.05998C9.05682 6.98248 7.54677 6.58127 6.16827 5.8824C4.78977 5.18353 3.57362 4.20262 2.59875 3.00332C2.26542 3.57832 2.07375 4.24498 2.07375 4.95498C2.07338 5.59415 2.23078 6.22352 2.53198 6.78726C2.83319 7.351 3.26888 7.83168 3.80042 8.18665C3.18398 8.16704 2.58114 8.00047 2.04208 7.70082V7.75082C2.04202 8.64727 2.35211 9.51613 2.91974 10.21C3.48736 10.9038 4.27756 11.3799 5.15625 11.5575C4.5844 11.7122 3.98486 11.735 3.40292 11.6242C3.65083 12.3955 4.13375 13.07 4.78406 13.5533C5.43437 14.0365 6.21951 14.3043 7.02958 14.3192C5.65444 15.3987 3.95616 15.9842 2.20792 15.9816C1.89823 15.9817 1.58881 15.9636 1.28125 15.9275C3.05581 17.0685 5.12153 17.674 7.23125 17.6716C14.3729 17.6716 18.2771 11.7566 18.2771 6.62665C18.2771 6.45998 18.2729 6.29165 18.2654 6.12498C19.0248 5.57579 19.6803 4.89573 20.2013 4.11665L20.2029 4.11415Z" fill="#C5C8D2"/>
</g>
<defs>
<clipPath id="clip0">
<rect width="20" height="20" fill="white" transform="translate(0.5)"/>
</clipPath>
</defs>
</svg>
